<svg width="148" height="60" viewBox="0 0 148 60" fill="none" xmlns="http://www.w3.org/2000/svg">
<path d="M36.7064 38.1029C36.7361 38.313 36.8412 38.5052 37.0021 38.6437C37.1631 38.7821 37.3688 38.8572 37.5811 38.8551C37.6233 38.8594 37.6658 38.8594 37.7079 38.8551L45.283 37.7661C45.3972 37.75 45.507 37.7116 45.6062 37.6529C45.7055 37.5942 45.7921 37.5165 45.8612 37.4243C45.9303 37.332 45.9805 37.227 46.0089 37.1153C46.0372 37.0036 46.0433 36.8873 46.0266 36.7733L45.4974 33.1782C45.4821 33.0646 45.4441 32.9553 45.3854 32.8568C45.3268 32.7583 45.2488 32.6727 45.1562 32.6052C44.9709 32.4663 44.7382 32.4066 44.5089 32.439L36.9294 33.5281C36.8153 33.5441 36.7055 33.5826 36.6062 33.6413C36.507 33.6999 36.4204 33.7776 36.3513 33.8699C36.2822 33.9622 36.232 34.0672 36.2036 34.1789C36.1752 34.2906 36.1692 34.4068 36.1859 34.5209L36.7064 38.1029ZM43.8879 34.2803L44.1547 36.1435L38.3115 37.0007L38.0622 35.1376L43.8879 34.2803Z" fill="#FDFDFF"/>
<path d="M55.9941 47.7248L54.8701 39.931C54.8535 39.8173 54.8146 39.7079 54.7557 39.6092C54.6968 39.5105 54.6191 39.4243 54.5269 39.3557C54.4347 39.287 54.3298 39.2372 54.2184 39.2091C54.1069 39.181 53.991 39.1752 53.8773 39.1919L50.8507 39.6293L46.6083 10.1904C46.5731 9.96123 46.4509 9.75446 46.2671 9.61308C46.1745 9.54451 46.0693 9.49492 45.9575 9.46715C45.8456 9.43938 45.7294 9.43398 45.6155 9.45126L34.9045 10.9864H34.8476H34.7864L26.1266 12.2329L26.0435 12.2547H25.9517L16.1941 13.6762L15.1751 6.75273C15.159 6.63859 15.1205 6.52876 15.0618 6.42954C15.0032 6.33032 14.9255 6.24367 14.8332 6.17458C14.741 6.10548 14.636 6.0553 14.5242 6.02692C14.4125 5.99855 14.2963 5.99253 14.1822 6.00922L0.763969 7.92486C0.647334 7.93975 0.534898 7.978 0.43338 8.03733C0.331863 8.09665 0.243348 8.17584 0.173127 8.27014C0.102905 8.36445 0.0524181 8.47195 0.024683 8.58622C-0.00305215 8.70048 -0.0074659 8.81916 0.0117055 8.93517L0.514672 12.3991C0.548227 12.6279 0.671062 12.8342 0.856301 12.9727C1.04154 13.1112 1.2741 13.1707 1.50311 13.1382L8.43093 12.141L12.5859 41.0069C10.6489 42.072 9.12099 43.7507 8.24234 45.779C7.36369 47.8073 7.18419 50.0702 7.73208 52.2117C8.27997 54.3531 9.52416 56.2517 11.269 57.6088C13.0138 58.966 15.1602 59.7046 17.3706 59.7086C17.8536 59.7081 18.3359 59.673 18.8139 59.6036C20.661 59.3359 22.396 58.5555 23.8217 57.3509C25.2474 56.1463 26.3066 54.566 26.8789 52.7895L55.2418 48.7002C55.3558 48.6841 55.4654 48.6456 55.5645 48.5871C55.6635 48.5286 55.7501 48.451 55.8191 48.359C55.9578 48.1784 56.0205 47.9509 55.9941 47.7248ZM34.1697 12.8539L36.1247 26.4122L32.8664 24.5053C32.6951 24.4051 32.4949 24.3662 32.2986 24.3948C32.1023 24.4234 31.9216 24.5179 31.7861 24.6627L29.1969 27.4094L27.2419 13.8511L34.1697 12.8539ZM25.5099 14.1004L27.7274 29.4693C27.7507 29.6317 27.8193 29.7843 27.9253 29.9096C28.0312 30.0349 28.1703 30.1278 28.3265 30.1779C28.413 30.204 28.5029 30.2173 28.5933 30.2172C28.7122 30.2168 28.8298 30.1921 28.9388 30.1448C29.0478 30.0974 29.1461 30.0283 29.2275 29.9417L32.5821 26.3816L36.807 28.8483C36.9488 28.9323 37.1114 28.9745 37.2761 28.9702C37.4409 28.9658 37.601 28.915 37.7381 28.8236C37.8753 28.7322 37.9838 28.6039 38.0512 28.4535C38.1186 28.3031 38.1421 28.1367 38.1191 27.9736L35.9017 12.6046L44.99 11.2926L49.11 39.8523L25.0245 43.3512C23.7163 41.7823 21.9548 40.6564 19.9817 40.1278L16.4215 15.4081L25.5099 14.1004ZM10.0448 11.0389C10.0096 10.8097 9.88741 10.6029 9.70365 10.4616C9.51774 10.3242 9.28503 10.266 9.05636 10.2997L2.12854 11.2838L1.87924 9.53436L13.5699 7.86801L18.171 39.7955C16.8476 39.6908 15.5167 39.859 14.261 40.2897L10.0448 11.0389ZM18.5646 57.8716C16.4071 58.1831 14.2142 57.6247 12.4684 56.3193C10.7226 55.014 9.56681 53.0685 9.25536 50.911C8.94391 48.7535 9.50229 46.5606 10.8077 44.8148C12.113 43.069 14.0585 41.9132 16.216 41.6018C16.607 41.5447 17.0017 41.5155 17.3969 41.5143C19.4714 41.5214 21.4665 42.3124 22.9823 43.7287C24.4981 45.145 25.4226 47.0819 25.5703 49.1511C25.718 51.2204 25.0781 53.269 23.7789 54.8863C22.4796 56.5035 20.6171 57.5699 18.5646 57.8716ZM27.2812 50.9613C27.392 50.0823 27.3846 49.1924 27.2594 48.3153C27.0851 47.1329 26.7015 45.991 26.1266 44.9432L50.2253 41.4706L53.2518 41.0332L54.1265 47.095L27.2812 50.9613Z" fill="#FDFDFF"/>
<path d="M18.5646 57.8716C16.4071 58.1831 14.2142 57.6247 12.4684 56.3193C10.7226 55.014 9.56681 53.0685 9.25536 50.911C8.94391 48.7535 9.50229 46.5606 10.8077 44.8148C12.113 43.069 14.0585 41.9132 16.216 41.6018C16.607 41.5447 17.0017 41.5155 17.3969 41.5143C19.4714 41.5214 21.4665 42.3124 22.9823 43.7287C24.4981 45.145 25.4226 47.0819 25.5703 49.1511C25.718 51.2204 25.0781 53.269 23.7789 54.8863C22.4796 56.5035 20.6171 57.5699 18.5646 57.8716Z" fill="#FDFDFF"/>
<path d="M34.1697 12.8539L36.1247 26.4122L32.8664 24.5053C32.6951 24.4051 32.4949 24.3662 32.2986 24.3948C32.1023 24.4234 31.9216 24.5179 31.7861 24.6627L29.1969 27.4094L27.2419 13.8511L34.1697 12.8539Z" fill="#FDFDFF"/>
<path d="M61.2876 36.1998L59.2137 19.193L62.8198 18.7532L64.8937 35.7601L61.2876 36.1998ZM80.9001 33.8082L77.3522 34.2408L76.4259 26.6448C76.3115 25.7064 76.0591 25.0249 75.6689 24.6003C75.2778 24.1679 74.7177 23.9961 73.9887 24.085C72.9961 24.2061 72.3194 24.627 71.9587 25.3478C71.5971 26.0609 71.5098 27.1852 71.6971 28.7207L72.4432 34.8395L68.8953 35.2721L67.3094 22.2669L70.0198 21.9364L70.6996 23.5417L70.8973 23.5175C71.2162 22.8412 71.7014 22.3019 72.3528 21.8998C73.0111 21.489 73.7822 21.2296 74.6663 21.1218C76.1785 20.9374 77.3764 21.2085 78.2599 21.935C79.1425 22.6538 79.6778 23.7848 79.866 25.3281L80.9001 33.8082ZM82.7997 28.571L82.445 25.6629L88.6917 24.9011L89.0464 27.8093L82.7997 28.571ZM100.137 14.2027L103.778 13.7587L100.071 31.4705L96.1388 31.95L88.2952 15.6467L91.9362 15.2027L96.3692 24.933C96.6204 25.5084 96.8878 26.1841 97.1713 26.9602C97.4616 27.7275 97.649 28.2635 97.7333 28.568C97.7316 27.8442 97.8702 26.5601 98.149 24.7159L100.137 14.2027ZM111.803 19.1551C111.051 19.2469 110.491 19.5591 110.123 20.092C109.754 20.617 109.592 21.3215 109.637 22.2054L114.615 21.5983C114.493 20.7239 114.182 20.0771 113.682 19.6579C113.182 19.231 112.555 19.0634 111.803 19.1551ZM113.639 30.052C111.545 30.3074 109.839 29.9291 108.519 28.9174C107.199 27.9056 106.41 26.3412 106.152 24.224C105.886 22.0449 106.224 20.2958 107.165 18.9769C108.113 17.6493 109.549 16.8682 111.472 16.6337C113.31 16.4096 114.804 16.7586 115.956 17.6807C117.107 18.6028 117.795 19.9867 118.02 21.8324L118.23 23.554L109.843 24.5767C110.005 25.5802 110.399 26.3309 111.027 26.8289C111.654 27.327 112.472 27.5145 113.48 27.3916C114.263 27.2961 114.994 27.1243 115.672 26.8764C116.35 26.6284 117.048 26.2797 117.764 25.8303L118.099 28.5756C117.516 28.9614 116.881 29.2711 116.193 29.5045C115.507 29.7456 114.655 29.9282 113.639 30.052ZM133.805 27.3569L130.257 27.7895L129.331 20.1934C129.216 19.2551 128.964 18.5736 128.574 18.1489C128.183 17.7165 127.623 17.5448 126.894 17.6337C125.901 17.7547 125.224 18.1757 124.864 18.8965C124.502 19.6096 124.415 20.7339 124.602 22.2694L125.348 28.3881L121.8 28.8208L120.214 15.8155L122.925 15.485L123.605 17.0903L123.802 17.0662C124.121 16.3898 124.606 15.8506 125.258 15.4484C125.916 15.0376 126.687 14.7783 127.571 14.6705C129.084 14.4861 130.281 14.7572 131.165 15.4837C132.047 16.2024 132.583 17.3335 132.771 18.8767L133.805 27.3569ZM142.62 23.6493C143.241 23.5736 143.969 23.3471 144.804 22.9698L145.126 25.6104C144.29 26.1137 143.229 26.4438 141.941 26.6008C140.522 26.7739 139.443 26.5434 138.705 25.9094C137.973 25.2666 137.52 24.2279 137.345 22.7932L136.581 16.5233L134.882 16.7304L134.699 15.2298L136.509 13.8049L137.198 10.9348L139.466 10.6582L139.804 13.4268L143.445 12.9828L143.769 15.6466L140.128 16.0906L140.893 22.3606C140.955 22.8647 141.14 23.2199 141.448 23.4263C141.764 23.6317 142.155 23.706 142.62 23.6493Z" fill="#FDFDFF"/>
</svg>
